<svg version="1.1" id="Layer_1" xmlns="http://www.w3.org/2000/svg" xmlns:xlink="http://www.w3.org/1999/xlink" x="0px" y="0px"
	 width="100%" viewBox="0 0 2489 360" enable-background="new 0 0 2489 360" xml:space="preserve">
<path fill="#000000" opacity="1.000000" stroke="none" 
	d="
M1895.000000,361.000000 
	C1263.333374,361.000000 632.166687,361.000000 1.000000,361.000000 
	C1.000000,241.000000 1.000000,121.000000 1.000000,1.000000 
	C830.666687,1.000000 1660.333374,1.000000 2490.000000,1.000000 
	C2490.000000,121.000000 2490.000000,241.000000 2490.000000,361.000000 
	C2291.833252,361.000000 2093.666748,361.000000 1895.000000,361.000000 
M279.325409,182.789276 
	C279.847198,183.208542 280.368988,183.627823 281.063110,184.515045 
	C281.248993,184.823456 281.520966,184.997162 282.081268,185.537842 
	C282.376007,185.732880 282.670776,185.927917 283.193665,186.680161 
	C284.088776,187.465500 284.983856,188.250839 286.081268,189.537842 
	C286.376007,189.732880 286.670776,189.927902 287.104858,190.571503 
	C287.288696,190.855698 287.549164,191.012863 288.063843,191.515442 
	C288.338959,191.692169 288.614044,191.868896 289.209595,192.690689 
	C293.463348,196.836838 297.717072,200.982986 302.299194,205.663513 
	C302.686066,205.750931 303.072906,205.838348 303.735291,206.512222 
	C305.449829,208.353531 307.164398,210.194855 309.081268,212.537827 
	C309.376007,212.732864 309.670776,212.927887 310.157104,213.633255 
	C310.852753,214.204544 311.548401,214.775833 312.577545,215.962296 
	C313.729034,216.398407 314.880493,216.834503 316.914459,217.500259 
	C318.590729,215.330963 321.279266,213.372040 321.780853,210.958618 
	C325.333527,193.865128 327.181702,176.708328 325.201233,159.105469 
	C323.545105,144.385406 320.378601,130.228821 315.054932,116.465225 
	C314.201965,114.259918 313.506409,112.922943 310.706573,112.932671 
	C279.600311,113.040779 248.493362,112.972008 217.387207,113.099106 
	C216.038773,113.104607 214.696198,114.544174 213.526855,115.937645 
	C213.979843,116.639282 214.432831,117.340919 215.063629,118.515114 
	C215.338791,118.691940 215.613968,118.868774 216.208328,119.688271 
	C219.890549,123.380325 223.528397,127.118240 227.275482,130.743225 
	C228.912979,132.327332 230.774048,133.680344 232.823318,135.978989 
	C233.448380,135.769318 234.073441,135.559631 234.335632,135.814209 
	C234.902954,136.610519 235.470291,137.406830 235.833221,138.770004 
	C236.703674,139.502289 237.574112,140.234589 238.355179,141.547409 
	C238.887680,142.067856 239.420181,142.588303 240.169113,143.652679 
	C240.765335,144.139709 241.361542,144.626724 242.228622,145.717621 
	C249.447845,152.825851 256.667084,159.934082 264.184174,167.669113 
	C265.941315,169.097748 267.698486,170.526367 269.756592,172.545914 
	C272.746796,175.417923 275.737030,178.289932 278.632111,181.397736 
	C278.599030,181.752884 278.737122,182.010025 279.325409,182.789276 
M241.042191,164.909149 
	C241.032562,187.183884 240.997681,209.458649 241.019867,231.733353 
	C241.046188,258.160706 241.121628,284.587982 241.130020,311.514221 
	C241.414230,311.620514 241.698425,311.726807 242.680069,311.756439 
	C245.803146,309.872925 248.926208,307.989410 252.759705,306.000122 
	C266.542786,297.213196 278.828033,286.799133 289.429657,274.236023 
	C299.334473,262.498657 306.953247,249.467834 313.616211,235.772797 
	C314.894592,233.145203 314.807007,231.083969 312.271820,228.588730 
	C291.173157,207.822662 270.328064,186.799210 249.328552,165.931793 
	C247.775589,164.388580 245.617493,163.454300 243.067871,162.065628 
	C242.721573,162.320267 242.375259,162.574905 241.532089,163.046555 
	C241.413300,163.356918 241.294525,163.667267 241.042191,164.909149 
M161.682312,284.201111 
	C158.441208,287.096039 155.200104,289.990967 151.375290,293.182831 
	C151.466965,293.680267 151.558624,294.177673 151.167084,294.951324 
	C147.715042,298.350128 144.263000,301.748962 140.102493,304.955627 
	C139.385956,305.601227 138.669418,306.246796 137.386368,307.137360 
	C136.578979,308.051605 135.771576,308.965851 134.462524,310.081818 
	C134.267761,310.376526 134.072998,310.671204 133.250336,311.261810 
	C131.771255,313.225037 130.292160,315.188263 128.053558,316.973450 
	C124.768173,319.949005 124.633171,320.576782 127.044632,322.899414 
	C127.348328,323.233887 127.608963,323.803833 127.962006,323.868408 
	C137.390396,325.592102 146.796738,327.480530 156.276642,328.861603 
	C161.790436,329.664825 167.457855,330.192444 172.997299,329.860809 
	C181.627991,329.344116 190.366592,328.695984 198.770020,326.812256 
	C209.003052,324.518372 218.936218,320.886658 229.863449,317.964417 
	C230.575562,316.665619 231.904434,315.369171 231.909378,314.067657 
	C232.025925,283.330444 232.017059,252.592682 231.954590,221.855164 
	C231.951065,220.115845 231.293152,218.377853 230.842987,216.162872 
	C228.988434,217.472275 227.942856,218.210510 226.443115,219.095367 
	C226.152786,219.279938 225.991287,219.543442 225.265930,219.997086 
	C222.138870,222.983704 219.011810,225.970306 215.281296,229.228546 
	C200.839874,243.780594 186.398453,258.332642 171.345398,273.170380 
	C168.282288,276.734650 165.219177,280.298889 161.682312,284.201111 
M174.582352,256.851807 
	C174.506439,256.344360 174.430527,255.836929 174.103500,255.683044 
	C174.103500,255.683044 174.468811,255.916718 175.211487,255.896545 
	C175.647278,255.335724 176.083069,254.774902 176.980026,253.860596 
	C177.807785,252.808929 178.635544,251.757263 180.009094,250.394302 
	C180.463898,248.919571 184.968521,248.382874 180.543915,245.197372 
	C179.716415,245.131866 178.888947,245.009171 178.061432,245.009003 
	C130.911209,244.999619 83.760986,244.999039 36.610764,245.008911 
	C35.508774,245.009140 34.406807,245.138611 32.532791,245.256271 
	C35.572235,250.364059 38.087692,255.073151 41.051033,259.481140 
	C50.031448,272.839478 60.841259,284.550110 73.267982,294.802307 
	C84.702782,304.236145 97.288239,311.712708 110.959122,317.357330 
	C111.984001,317.780487 113.988380,317.389984 114.771889,316.609344 
	C130.928970,300.511658 146.974838,284.302307 163.656754,267.827057 
	C164.647644,266.663513 165.638535,265.499939 167.131668,263.984192 
	C169.416183,261.708008 171.700699,259.431854 174.582352,256.851807 
M2453.000000,132.521790 
	C2452.666504,127.603539 2451.931152,122.672989 2452.081299,117.769539 
	C2452.425049,106.551750 2450.989258,95.595306 2447.969482,84.850723 
	C2443.255127,68.075500 2435.080811,53.703892 2420.219238,43.550259 
	C2406.150391,33.938324 2390.263428,30.832325 2373.892822,30.236506 
	C2365.039307,29.914274 2355.778076,30.866426 2347.259033,33.243622 
	C2326.247314,39.106674 2309.418701,50.556732 2301.825928,72.382217 
	C2301.568115,73.123589 2300.509521,73.586342 2300.179688,73.871513 
	C2294.823486,66.072289 2289.973633,58.261044 2284.360352,51.043797 
	C2278.551025,43.574791 2271.146729,37.573139 2261.871338,35.133801 
	C2253.014648,32.804562 2243.862305,30.464661 2234.808350,30.336359 
	C2225.712646,30.207460 2216.342041,31.960703 2207.526367,34.435898 
	C2198.519287,36.964725 2189.999023,41.518745 2183.773193,48.873890 
	C2178.051025,55.634064 2172.998779,62.961243 2166.892822,71.042747 
	C2166.892822,58.947556 2166.892822,48.053478 2166.892822,37.306343 
	C2135.647949,37.306343 2104.912842,37.306343 2074.295410,37.306343 
	C2074.295410,116.007957 2074.295410,194.402908 2074.295410,272.706238 
	C2105.326660,272.706238 2136.061523,272.706238 2167.000000,272.706238 
	C2167.000000,270.601013 2167.000000,268.788025 2167.000000,266.975037 
	C2167.000000,226.149277 2166.969238,185.323456 2167.044189,144.497818 
	C2167.052490,140.087051 2166.846680,135.394272 2168.230713,131.341141 
	C2169.844482,126.614342 2172.151855,121.300049 2175.829834,118.269768 
	C2184.100830,111.455803 2194.206543,110.847748 2203.712158,115.464615 
	C2212.794922,119.876167 2215.929688,128.578415 2215.953613,138.199448 
	C2216.060547,181.357834 2216.000000,224.516632 2216.000000,267.675293 
	C2216.000000,269.422791 2216.000000,271.170288 2216.000000,272.651001 
	C2247.437744,272.651001 2278.173584,272.651001 2310.000000,272.651001 
	C2310.000000,226.897812 2309.958008,181.494705 2310.030273,136.091766 
	C2310.047607,125.232727 2316.114990,116.293488 2328.214844,113.257126 
	C2339.982422,110.304001 2352.434814,116.039955 2356.541016,127.215279 
	C2358.129150,131.536911 2358.878662,136.404297 2358.897705,141.027695 
	C2359.071533,183.185822 2359.000000,225.344940 2359.000000,267.503784 
	C2359.000000,269.267792 2359.000000,271.031799 2359.000000,272.711670 
	C2390.649170,272.711670 2421.717285,272.711670 2453.000000,272.711670 
	C2453.000000,226.120834 2453.000000,179.817978 2453.000000,132.521790 
M1286.405396,182.927902 
	C1286.590332,183.195007 1286.884399,183.439651 1286.944580,183.732407 
	C1289.829834,197.762970 1295.392822,210.807724 1303.909668,222.145187 
	C1315.523682,237.605545 1330.364380,249.068710 1348.978394,255.655090 
	C1361.828613,260.201996 1375.016846,262.607666 1388.374756,262.717438 
	C1398.662720,262.802032 1409.102051,260.962982 1419.241455,258.858643 
	C1435.975342,255.385712 1449.615112,246.738876 1459.016113,232.062698 
	C1460.446045,229.830124 1462.130737,227.760635 1464.622681,224.349503 
	C1465.302612,227.382645 1466.137329,228.939209 1465.864258,230.268051 
	C1464.769775,235.592712 1463.288574,240.836502 1462.029297,246.128952 
	C1459.376343,257.278717 1452.044800,265.116211 1442.858032,270.867279 
	C1429.308350,279.349487 1414.018188,282.636932 1398.124146,282.968536 
	C1389.634644,283.145660 1381.134399,283.161591 1372.646484,282.952362 
	C1364.907715,282.761597 1357.153320,282.432831 1349.452026,281.687744 
	C1339.258057,280.701569 1329.103882,279.290253 1318.942993,277.980835 
	C1314.820068,277.449524 1313.062500,279.642487 1313.045166,283.263428 
	C1312.951538,302.758057 1312.942383,322.253693 1313.046509,341.748230 
	C1313.069458,346.051971 1314.831177,348.947571 1319.979614,348.049866 
	C1321.757812,347.739838 1323.654907,347.839813 1325.466553,348.037872 
	C1337.140991,349.314240 1348.794922,351.658417 1360.477905,351.797913 
	C1386.539429,352.109192 1412.632446,351.805084 1438.674927,350.788086 
	C1450.611572,350.321930 1462.659668,348.425964 1474.295776,345.658417 
	C1488.338501,342.318542 1501.725830,336.898651 1513.478638,327.971649 
	C1523.562134,320.312500 1531.008789,310.686371 1536.205566,299.311401 
	C1541.086914,288.627197 1545.288818,277.755829 1546.210327,265.766846 
	C1546.878052,257.077393 1549.784790,248.481552 1549.826660,239.834946 
	C1550.143555,174.186371 1549.952759,108.535492 1550.083862,42.885654 
	C1550.095093,37.231316 1548.364136,35.876133 1543.284668,35.913666 
	C1517.792480,36.102009 1492.298096,36.000000 1466.804565,36.000000 
	C1456.000000,36.000000 1456.000000,36.000000 1456.000000,46.859909 
	C1456.000000,53.877430 1456.000000,60.894951 1456.000000,67.912468 
	C1455.452515,68.054375 1454.905151,68.196281 1454.357666,68.338188 
	C1452.802856,65.305550 1451.567627,62.051094 1449.641479,59.276192 
	C1436.897339,40.916153 1418.368530,32.270065 1396.923950,30.285160 
	C1386.426025,29.313492 1375.323120,29.947252 1365.072754,32.337017 
	C1347.723145,36.381912 1331.970703,44.499245 1318.976685,57.154392 
	C1308.191528,67.658432 1299.716431,79.673538 1293.638794,93.578354 
	C1287.347290,107.972450 1283.473633,122.780136 1283.021240,138.452728 
	C1282.598267,153.109085 1282.821777,167.738174 1286.405396,182.927902 
M623.009949,50.517242 
	C619.998901,48.010651 617.184143,45.208954 613.940735,43.051659 
	C603.338196,35.999462 591.824829,32.009693 578.920288,30.755119 
	C565.827637,29.482260 553.182800,30.546604 540.758728,34.084751 
	C524.049438,38.843281 510.040283,48.039543 497.782867,60.502789 
	C480.349915,78.228485 471.172119,100.016670 466.314606,123.608879 
	C463.888306,135.393021 464.551208,147.832474 464.028320,159.984619 
	C463.283783,177.286987 467.268036,193.771698 473.006714,209.937805 
	C478.622040,225.756256 487.530579,239.613708 499.189087,251.469833 
	C508.070923,260.502228 518.308472,268.184082 530.618103,272.080231 
	C540.369873,275.166809 550.262085,278.365387 560.333923,279.737366 
	C571.536865,281.263397 582.828064,279.274384 593.757690,276.010712 
	C608.238403,271.686676 620.791504,264.621399 629.136292,251.467621 
	C631.549988,247.662933 633.978210,243.867447 636.399841,240.067734 
	C636.857422,240.183502 637.315002,240.299255 637.772583,240.415024 
	C637.772583,251.220734 637.772583,262.026428 637.772583,272.999878 
	C668.085327,272.999878 697.565125,272.941406 727.044128,273.066559 
	C731.196472,273.084167 731.021118,270.749939 731.020142,267.904236 
	C730.994812,192.244385 730.969238,116.584488 731.084045,40.924809 
	C731.090271,36.819416 729.707275,35.905308 725.873108,35.924381 
	C697.709656,36.064472 669.545227,35.996239 641.381104,36.014484 
	C640.286438,36.015194 639.191956,36.227299 637.477783,36.405205 
	C637.477783,47.340076 637.477783,58.021782 637.477783,68.703484 
	C637.140259,68.781326 636.802673,68.859169 636.465149,68.937004 
	C632.153931,62.964676 627.842773,56.992348 623.009949,50.517242 
M1948.576904,273.000000 
	C1975.398438,273.000000 2002.221191,272.871338 2029.040405,273.116180 
	C2033.985718,273.161316 2035.111816,271.628357 2035.098755,266.910980 
	C2034.945068,211.435669 2035.000000,155.959778 2035.000000,100.484032 
	C2035.000000,80.659370 2034.972534,60.834625 2035.030151,41.010132 
	C2035.038696,38.073299 2035.023071,35.912319 2030.961182,35.931057 
	C2002.640869,36.061710 1974.319458,36.032978 1945.998779,35.952816 
	C1942.933350,35.944138 1941.900269,37.040955 1941.952759,40.051083 
	C1942.091797,48.045166 1942.040771,56.043648 1941.965210,64.039421 
	C1941.950317,65.611671 1941.486938,67.179695 1941.230469,68.749664 
	C1940.783691,68.799568 1940.336792,68.849464 1939.890015,68.899368 
	C1938.452881,66.286591 1937.105591,63.619564 1935.564209,61.069824 
	C1925.288696,44.072247 1909.181641,35.156593 1890.620972,31.317266 
	C1878.350830,28.779152 1865.449097,29.316208 1852.984741,32.037323 
	C1826.590088,37.799557 1805.986206,52.133488 1790.875122,74.499565 
	C1781.411987,88.506378 1775.255249,103.752075 1771.728882,120.329857 
	C1769.019165,133.068436 1767.703735,145.804901 1768.032227,158.744461 
	C1768.371094,172.090897 1769.305908,185.381317 1773.980591,198.084885 
	C1777.324707,207.172638 1779.883911,216.663696 1784.247437,225.234604 
	C1790.547241,237.609360 1799.331177,248.407822 1810.072021,257.359772 
	C1826.842407,271.337402 1846.608276,278.096863 1868.048340,279.870453 
	C1879.301880,280.801422 1890.319458,278.548859 1901.174072,275.122070 
	C1915.539062,270.586914 1926.690918,262.197784 1934.765747,249.609360 
	C1936.731201,246.545380 1938.405640,243.294678 1940.213745,240.129837 
	C1940.679199,240.174744 1941.144531,240.219666 1941.609863,240.264572 
	C1941.609863,251.138107 1941.609863,262.011627 1941.609863,273.000000 
	C1944.292969,273.000000 1945.946411,273.000000 1948.576904,273.000000 
M1004.416199,273.000000 
	C1007.338318,272.764130 1010.580627,273.174225 1013.020081,271.964874 
	C1013.956177,271.500763 1013.057434,267.342560 1013.002258,264.867493 
	C1012.987366,264.201263 1013.000000,263.534454 1013.000000,262.867889 
	C1013.000000,221.708679 1013.113159,180.549011 1012.940735,139.390518 
	C1012.877502,124.286079 1013.725220,109.225426 1010.240906,94.139526 
	C1006.418762,77.590782 1000.515503,62.324677 988.524170,50.261761 
	C978.045410,39.720375 964.888184,34.338799 950.029907,31.701372 
	C934.658386,28.972839 919.849365,29.410927 905.166382,34.084904 
	C892.501343,38.116547 881.222351,44.589653 873.071167,55.477409 
	C869.662964,60.029842 866.629761,64.863083 863.000000,70.194450 
	C863.000000,60.254772 862.781006,50.992256 863.096802,41.748013 
	C863.244202,37.433674 861.786621,35.939014 857.576660,35.952923 
	C829.915283,36.044292 802.253418,36.036270 774.591980,35.959846 
	C770.573914,35.948750 768.888062,37.040028 768.896729,41.576218 
	C769.041504,117.228897 768.998718,192.881927 769.009827,268.534882 
	C769.010010,269.967590 769.157288,271.400330 769.245056,273.000000 
	C798.744629,273.000000 827.888611,272.881927 857.029785,273.114838 
	C861.958984,273.154236 863.121216,271.654236 863.101074,266.918823 
	C862.925781,225.760361 862.841187,184.599777 863.118469,143.442429 
	C863.182861,133.884964 866.857727,125.415222 874.474670,118.935898 
	C880.624512,113.704514 887.532166,113.262321 895.187195,113.823570 
	C903.288574,114.417534 909.243958,117.606804 913.825745,124.235825 
	C918.363464,130.801239 919.871338,138.220428 919.908081,145.804581 
	C920.103577,186.129669 920.035339,226.456268 919.948853,266.782104 
	C919.939514,271.125244 920.819214,273.181244 925.951233,273.126495 
	C951.776978,272.850891 977.607178,273.000000 1004.416199,273.000000 
M1232.492554,36.000000 
	C1201.660034,36.000000 1170.826538,36.134491 1139.995239,35.943737 
	C1124.385498,35.847160 1108.896851,36.092461 1093.842285,40.978592 
	C1079.212280,45.726982 1066.489990,53.094662 1056.809692,65.468193 
	C1047.498413,77.370132 1042.729492,90.769463 1040.895386,105.633621 
	C1038.690796,123.500114 1040.031494,140.636810 1048.395508,156.917572 
	C1059.088745,177.732330 1077.696777,187.426437 1099.253662,191.711517 
	C1110.761108,193.998978 1122.848633,193.562149 1134.687622,193.931412 
	C1145.177124,194.258606 1155.699097,193.699554 1166.175415,194.195114 
	C1169.071289,194.332092 1173.258911,196.113831 1174.432861,198.389771 
	C1178.306641,205.899399 1176.752563,214.898743 1163.972046,214.948929 
	C1127.140259,215.093567 1090.307129,215.076080 1053.475586,214.901321 
	C1048.994507,214.880066 1047.826782,216.242416 1047.905396,220.578430 
	C1048.159180,234.573486 1048.000000,248.576004 1048.000000,262.575653 
	C1048.000000,266.003998 1048.000000,269.432312 1048.000000,273.000000 
	C1050.447998,273.000000 1052.267944,273.000000 1054.087769,273.000000 
	C1096.920044,273.000000 1139.753418,272.819122 1182.583740,273.108856 
	C1195.637085,273.197113 1208.249756,271.376434 1220.335449,266.826813 
	C1236.973267,260.563568 1250.451050,250.105026 1257.935181,233.581497 
	C1265.692139,216.456268 1269.902954,198.919495 1266.356323,179.522751 
	C1263.589722,164.393158 1258.386597,151.015732 1248.187134,139.829636 
	C1233.619385,123.852867 1214.506958,117.116516 1193.527588,116.173531 
	C1175.065430,115.343674 1156.536377,116.018326 1138.036865,115.991211 
	C1130.366089,115.979973 1125.510376,111.843727 1124.917603,105.813850 
	C1124.125366,97.753174 1129.931763,93.973335 1137.334229,93.981834 
	C1172.666626,94.022369 1207.999146,94.000000 1243.331543,94.000000 
	C1245.112183,94.000000 1246.892944,94.000000 1248.999634,94.000000 
	C1248.999634,75.581306 1248.958130,57.619221 1249.040161,39.657703 
	C1249.053955,36.639759 1247.134521,36.136845 1244.986206,36.046711 
	C1241.159668,35.886162 1237.321533,36.000576 1232.492554,36.000000 
M1614.500000,273.000000 
	C1635.326660,273.000000 1656.154053,272.903839 1676.979126,273.084259 
	C1680.959839,273.118744 1682.108643,271.937744 1682.082886,267.970428 
	C1681.919678,242.812744 1681.983154,217.653458 1682.008911,192.494736 
	C1682.018433,183.188080 1681.674927,173.967865 1684.869507,164.834259 
	C1689.751099,150.877075 1698.467896,141.184540 1712.752808,137.050735 
	C1724.152832,133.751740 1735.756714,135.123703 1747.114868,137.196091 
	C1752.105713,138.106720 1752.052002,136.252975 1752.042725,132.641037 
	C1751.966919,102.983887 1752.000000,73.326462 1752.000000,43.669121 
	C1752.000000,29.006672 1751.979248,28.867182 1737.401001,31.039846 
	C1723.033447,33.181137 1710.186157,38.717205 1699.562988,48.923092 
	C1689.171021,58.906727 1682.177368,70.926468 1677.734009,84.554337 
	C1677.197388,86.199989 1675.989990,87.626945 1675.093506,89.155258 
	C1674.729004,89.042816 1674.364502,88.930367 1674.000000,88.817924 
	C1674.000000,87.239845 1674.000000,85.661766 1674.000000,84.083687 
	C1674.000000,69.921478 1673.846558,55.756592 1674.092773,41.598663 
	C1674.167603,37.297134 1673.062134,35.858070 1668.547363,35.897774 
	C1644.056885,36.113152 1619.562622,36.114098 1595.071899,35.917171 
	C1589.188110,35.869858 1587.907959,37.393398 1587.921875,43.028179 
	C1588.053345,96.011200 1588.000000,148.994675 1588.000000,201.978012 
	C1588.000000,223.971100 1588.089478,245.964890 1587.917480,267.956635 
	C1587.886719,271.905518 1588.995483,273.259125 1593.010132,273.082489 
	C1599.828125,272.782562 1606.668823,273.000000 1614.500000,273.000000 
M133.780960,23.085140 
	C125.801384,25.686325 117.821808,28.287510 110.293449,30.741608 
	C110.293449,66.023819 110.293449,100.217056 110.293449,133.721924 
	C145.797211,98.215538 181.496750,62.513340 217.855209,26.152193 
	C190.353592,17.226774 162.658981,16.746067 133.780960,23.085140 
M86.978043,43.493336 
	C80.785484,48.032055 74.158012,52.087769 68.481339,57.199398 
	C50.945889,72.989410 36.802673,91.377296 27.986534,113.476410 
	C27.459711,114.796974 28.043745,117.350075 29.066711,118.383385 
	C51.093071,140.632645 73.246666,162.756073 95.421318,184.858017 
	C96.454353,185.887695 97.911247,186.492096 99.651886,187.601120 
	C99.651886,136.540451 99.651886,86.401657 99.651886,35.740807 
	C95.285614,38.348728 91.401978,40.668377 86.978043,43.493336 
M71.000237,174.499817 
	C55.184410,158.681534 39.368587,142.863266 23.321524,126.813721 
	C22.657854,127.989319 22.221792,128.510696 22.046711,129.108505 
	C17.389656,145.010071 15.565144,161.179443 15.829484,177.805328 
	C16.117250,195.904724 19.640350,213.123459 25.794931,230.033966 
	C27.199093,233.892075 28.858875,235.090500 32.776405,235.073715 
	C63.737164,234.941132 94.698746,235.000031 125.660072,235.000031 
	C127.241417,235.000031 128.822754,235.000015 131.566223,235.000015 
	C110.975311,214.431641 91.237785,194.715714 71.000237,174.499817 
M205.000092,53.500153 
	C196.994461,61.505634 188.954300,69.476952 180.992950,77.526222 
	C173.075302,85.531296 164.855759,93.268906 157.267487,101.576477 
	C157.611816,101.970024 157.956161,102.363579 158.300491,102.757126 
	C208.304474,102.757126 258.308472,102.757126 308.336945,102.757126 
	C308.299988,102.363403 308.367432,101.997696 308.227722,101.747726 
	C298.804993,84.884979 287.578064,69.555130 272.644653,56.961449 
	C260.156281,46.429688 246.745224,37.661243 231.754425,31.184038 
	C229.077255,30.027294 227.741287,30.625910 225.942749,32.474751 
	C219.209991,39.395790 212.326843,46.170540 205.000092,53.500153 
z"/>
<path fill="#FFFFFF" opacity="1.000000" stroke="none" 
	d="
M2453.000000,133.018463 
	C2453.000000,179.817978 2453.000000,226.120834 2453.000000,272.711670 
	C2421.717285,272.711670 2390.649170,272.711670 2359.000000,272.711670 
	C2359.000000,271.031799 2359.000000,269.267792 2359.000000,267.503784 
	C2359.000000,225.344940 2359.071533,183.185822 2358.897705,141.027695 
	C2358.878662,136.404297 2358.129150,131.536911 2356.541016,127.215279 
	C2352.434814,116.039955 2339.982422,110.304001 2328.214844,113.257126 
	C2316.114990,116.293488 2310.047607,125.232727 2310.030273,136.091766 
	C2309.958008,181.494705 2310.000000,226.897812 2310.000000,272.651001 
	C2278.173584,272.651001 2247.437744,272.651001 2216.000000,272.651001 
	C2216.000000,271.170288 2216.000000,269.422791 2216.000000,267.675293 
	C2216.000000,224.516632 2216.060547,181.357834 2215.953613,138.199448 
	C2215.929688,128.578415 2212.794922,119.876167 2203.712158,115.464615 
	C2194.206543,110.847748 2184.100830,111.455803 2175.829834,118.269768 
	C2172.151855,121.300049 2169.844482,126.614342 2168.230713,131.341141 
	C2166.846680,135.394272 2167.052490,140.087051 2167.044189,144.497818 
	C2166.969238,185.323456 2167.000000,226.149277 2167.000000,266.975037 
	C2167.000000,268.788025 2167.000000,270.601013 2167.000000,272.706238 
	C2136.061523,272.706238 2105.326660,272.706238 2074.295410,272.706238 
	C2074.295410,194.402908 2074.295410,116.007957 2074.295410,37.306343 
	C2104.912842,37.306343 2135.647949,37.306343 2166.892822,37.306343 
	C2166.892822,48.053478 2166.892822,58.947556 2166.892822,71.042747 
	C2172.998779,62.961243 2178.051025,55.634064 2183.773193,48.873890 
	C2189.999023,41.518745 2198.519287,36.964725 2207.526367,34.435898 
	C2216.342041,31.960703 2225.712646,30.207460 2234.808350,30.336359 
	C2243.862305,30.464661 2253.014648,32.804562 2261.871338,35.133801 
	C2271.146729,37.573139 2278.551025,43.574791 2284.360352,51.043797 
	C2289.973633,58.261044 2294.823486,66.072289 2300.179688,73.871513 
	C2300.509521,73.586342 2301.568115,73.123589 2301.825928,72.382217 
	C2309.418701,50.556732 2326.247314,39.106674 2347.259033,33.243622 
	C2355.778076,30.866426 2365.039307,29.914274 2373.892822,30.236506 
	C2390.263428,30.832325 2406.150391,33.938324 2420.219238,43.550259 
	C2435.080811,53.703892 2443.255127,68.075500 2447.969482,84.850723 
	C2450.989258,95.595306 2452.425049,106.551750 2452.081299,117.769539 
	C2451.931152,122.672989 2452.666504,127.603539 2453.000000,133.018463 
z"/>
<path fill="#FFFFFF" opacity="1.000000" stroke="none" 
	d="
M1286.217041,182.540329 
	C1282.821777,167.738174 1282.598267,153.109085 1283.021240,138.452728 
	C1283.473633,122.780136 1287.347290,107.972450 1293.638794,93.578354 
	C1299.716431,79.673538 1308.191528,67.658432 1318.976685,57.154392 
	C1331.970703,44.499245 1347.723145,36.381912 1365.072754,32.337017 
	C1375.323120,29.947252 1386.426025,29.313492 1396.923950,30.285160 
	C1418.368530,32.270065 1436.897339,40.916153 1449.641479,59.276192 
	C1451.567627,62.051094 1452.802856,65.305550 1454.357666,68.338188 
	C1454.905151,68.196281 1455.452515,68.054375 1456.000000,67.912468 
	C1456.000000,60.894951 1456.000000,53.877430 1456.000000,46.859909 
	C1456.000000,36.000000 1456.000000,36.000000 1466.804565,36.000000 
	C1492.298096,36.000000 1517.792480,36.102009 1543.284668,35.913666 
	C1548.364136,35.876133 1550.095093,37.231316 1550.083862,42.885654 
	C1549.952759,108.535492 1550.143555,174.186371 1549.826660,239.834946 
	C1549.784790,248.481552 1546.878052,257.077393 1546.210327,265.766846 
	C1545.288818,277.755829 1541.086914,288.627197 1536.205566,299.311401 
	C1531.008789,310.686371 1523.562134,320.312500 1513.478638,327.971649 
	C1501.725830,336.898651 1488.338501,342.318542 1474.295776,345.658417 
	C1462.659668,348.425964 1450.611572,350.321930 1438.674927,350.788086 
	C1412.632446,351.805084 1386.539429,352.109192 1360.477905,351.797913 
	C1348.794922,351.658417 1337.140991,349.314240 1325.466553,348.037872 
	C1323.654907,347.839813 1321.757812,347.739838 1319.979614,348.049866 
	C1314.831177,348.947571 1313.069458,346.051971 1313.046509,341.748230 
	C1312.942383,322.253693 1312.951538,302.758057 1313.045166,283.263428 
	C1313.062500,279.642487 1314.820068,277.449524 1318.942993,277.980835 
	C1329.103882,279.290253 1339.258057,280.701569 1349.452026,281.687744 
	C1357.153320,282.432831 1364.907715,282.761597 1372.646484,282.952362 
	C1381.134399,283.161591 1389.634644,283.145660 1398.124146,282.968536 
	C1414.018188,282.636932 1429.308350,279.349487 1442.858032,270.867279 
	C1452.044800,265.116211 1459.376343,257.278717 1462.029297,246.128952 
	C1463.288574,240.836502 1464.769775,235.592712 1465.864258,230.268051 
	C1466.137329,228.939209 1465.302612,227.382645 1464.622681,224.349503 
	C1462.130737,227.760635 1460.446045,229.830124 1459.016113,232.062698 
	C1449.615112,246.738876 1435.975342,255.385712 1419.241455,258.858643 
	C1409.102051,260.962982 1398.662720,262.802032 1388.374756,262.717438 
	C1375.016846,262.607666 1361.828613,260.201996 1348.978394,255.655090 
	C1330.364380,249.068710 1315.523682,237.605545 1303.909668,222.145187 
	C1295.392822,210.807724 1289.829834,197.762970 1286.944580,183.732407 
	C1286.884399,183.439651 1286.590332,183.195007 1286.217041,182.540329 
M1454.972168,161.290283 
	C1455.314819,155.728806 1456.024414,150.160355 1455.918823,144.607391 
	C1455.734741,134.922699 1452.344727,126.193733 1445.612915,119.242493 
	C1436.204102,109.526970 1424.037354,106.766418 1411.123047,108.125107 
	C1396.634033,109.649467 1385.314941,116.733696 1379.902222,130.752350 
	C1375.699219,141.637863 1375.057373,153.012466 1378.806274,164.342972 
	C1381.230835,171.670746 1384.473755,178.551025 1391.134644,182.973984 
	C1402.448975,190.486969 1414.313721,192.480103 1428.028320,189.365494 
	C1441.811157,186.235352 1452.915771,174.194061 1454.972168,161.290283 
z"/>
<path fill="#FFFFFF" opacity="1.000000" stroke="none" 
	d="
M623.270752,50.768631 
	C627.842773,56.992348 632.153931,62.964676 636.465149,68.937004 
	C636.802673,68.859169 637.140259,68.781326 637.477783,68.703484 
	C637.477783,58.021782 637.477783,47.340076 637.477783,36.405205 
	C639.191956,36.227299 640.286438,36.015194 641.381104,36.014484 
	C669.545227,35.996239 697.709656,36.064472 725.873108,35.924381 
	C729.707275,35.905308 731.090271,36.819416 731.084045,40.924809 
	C730.969238,116.584488 730.994812,192.244385 731.020142,267.904236 
	C731.021118,270.749939 731.196472,273.084167 727.044128,273.066559 
	C697.565125,272.941406 668.085327,272.999878 637.772583,272.999878 
	C637.772583,262.026428 637.772583,251.220734 637.772583,240.415024 
	C637.315002,240.299255 636.857422,240.183502 636.399841,240.067734 
	C633.978210,243.867447 631.549988,247.662933 629.136292,251.467621 
	C620.791504,264.621399 608.238403,271.686676 593.757690,276.010712 
	C582.828064,279.274384 571.536865,281.263397 560.333923,279.737366 
	C550.262085,278.365387 540.369873,275.166809 530.618103,272.080231 
	C518.308472,268.184082 508.070923,260.502228 499.189087,251.469833 
	C487.530579,239.613708 478.622040,225.756256 473.006714,209.937805 
	C467.268036,193.771698 463.283783,177.286987 464.028320,159.984619 
	C464.551208,147.832474 463.888306,135.393021 466.314606,123.608879 
	C471.172119,100.016670 480.349915,78.228485 497.782867,60.502789 
	C510.040283,48.039543 524.049438,38.843281 540.758728,34.084751 
	C553.182800,30.546604 565.827637,29.482260 578.920288,30.755119 
	C591.824829,32.009693 603.338196,35.999462 613.940735,43.051659 
	C617.184143,45.208954 619.998901,48.010651 623.270752,50.768631 
M568.996460,124.506859 
	C566.331177,128.847336 563.186584,132.971420 561.107361,137.576508 
	C557.544617,145.467392 558.765930,153.985153 558.984802,162.332077 
	C559.226257,171.541214 562.885559,179.531311 569.347595,185.593353 
	C578.997803,194.646255 590.947021,197.796753 604.109070,195.995636 
	C618.450134,194.033188 628.888489,186.836929 634.344788,173.157013 
	C637.840515,164.392776 638.916504,155.414474 637.068359,146.007812 
	C635.075867,135.866562 631.333557,127.124191 622.533386,120.799484 
	C613.779602,114.508057 604.304199,113.460709 593.889282,113.784622 
	C584.139709,114.087822 576.445374,117.754616 568.996460,124.506859 
z"/>
<path fill="#FFFFFF" opacity="1.000000" stroke="none" 
	d="
M1948.088379,273.000000 
	C1945.946411,273.000000 1944.292969,273.000000 1941.609863,273.000000 
	C1941.609863,262.011627 1941.609863,251.138107 1941.609863,240.264572 
	C1941.144531,240.219666 1940.679199,240.174744 1940.213745,240.129837 
	C1938.405640,243.294678 1936.731201,246.545380 1934.765747,249.609360 
	C1926.690918,262.197784 1915.539062,270.586914 1901.174072,275.122070 
	C1890.319458,278.548859 1879.301880,280.801422 1868.048340,279.870453 
	C1846.608276,278.096863 1826.842407,271.337402 1810.072021,257.359772 
	C1799.331177,248.407822 1790.547241,237.609360 1784.247437,225.234604 
	C1779.883911,216.663696 1777.324707,207.172638 1773.980591,198.084885 
	C1769.305908,185.381317 1768.371094,172.090897 1768.032227,158.744461 
	C1767.703735,145.804901 1769.019165,133.068436 1771.728882,120.329857 
	C1775.255249,103.752075 1781.411987,88.506378 1790.875122,74.499565 
	C1805.986206,52.133488 1826.590088,37.799557 1852.984741,32.037323 
	C1865.449097,29.316208 1878.350830,28.779152 1890.620972,31.317266 
	C1909.181641,35.156593 1925.288696,44.072247 1935.564209,61.069824 
	C1937.105591,63.619564 1938.452881,66.286591 1939.890015,68.899368 
	C1940.336792,68.849464 1940.783691,68.799568 1941.230469,68.749664 
	C1941.486938,67.179695 1941.950317,65.611671 1941.965210,64.039421 
	C1942.040771,56.043648 1942.091797,48.045166 1941.952759,40.051083 
	C1941.900269,37.040955 1942.933350,35.944138 1945.998779,35.952816 
	C1974.319458,36.032978 2002.640869,36.061710 2030.961182,35.931057 
	C2035.023071,35.912319 2035.038696,38.073299 2035.030151,41.010132 
	C2034.972534,60.834625 2035.000000,80.659370 2035.000000,100.484032 
	C2035.000000,155.959778 2034.945068,211.435669 2035.098755,266.910980 
	C2035.111816,271.628357 2033.985718,273.161316 2029.040405,273.116180 
	C2002.221191,272.871338 1975.398438,273.000000 1948.088379,273.000000 
M1940.979004,141.975510 
	C1940.656250,141.245300 1940.258667,140.538483 1940.022217,139.781342 
	C1936.585571,128.778610 1930.063599,120.785080 1919.028076,116.361526 
	C1911.372314,113.292694 1903.681641,113.629723 1895.819458,113.980690 
	C1882.783447,114.562599 1870.596924,124.058731 1866.049683,135.417160 
	C1861.259766,147.382385 1861.393311,159.858704 1865.315796,171.781265 
	C1867.206665,177.528671 1871.452148,183.159500 1876.063599,187.214233 
	C1885.158569,195.211060 1896.366577,197.705048 1908.470459,196.030350 
	C1917.208130,194.821396 1924.993530,191.679642 1931.171875,185.280106 
	C1938.464478,177.726364 1941.589355,168.341324 1941.914429,158.068893 
	C1942.074585,153.010056 1941.332397,147.922668 1940.979004,141.975510 
z"/>
<path fill="#FFFFFF" opacity="1.000000" stroke="none" 
	d="
M1003.926025,273.000000 
	C977.607178,273.000000 951.776978,272.850891 925.951233,273.126495 
	C920.819214,273.181244 919.939514,271.125244 919.948853,266.782104 
	C920.035339,226.456268 920.103577,186.129669 919.908081,145.804581 
	C919.871338,138.220428 918.363464,130.801239 913.825745,124.235825 
	C909.243958,117.606804 903.288574,114.417534 895.187195,113.823570 
	C887.532166,113.262321 880.624512,113.704514 874.474670,118.935898 
	C866.857727,125.415222 863.182861,133.884964 863.118469,143.442429 
	C862.841187,184.599777 862.925781,225.760361 863.101074,266.918823 
	C863.121216,271.654236 861.958984,273.154236 857.029785,273.114838 
	C827.888611,272.881927 798.744629,273.000000 769.245056,273.000000 
	C769.157288,271.400330 769.010010,269.967590 769.009827,268.534882 
	C768.998718,192.881927 769.041504,117.228897 768.896729,41.576218 
	C768.888062,37.040028 770.573914,35.948750 774.591980,35.959846 
	C802.253418,36.036270 829.915283,36.044292 857.576660,35.952923 
	C861.786621,35.939014 863.244202,37.433674 863.096802,41.748013 
	C862.781006,50.992256 863.000000,60.254772 863.000000,70.194450 
	C866.629761,64.863083 869.662964,60.029842 873.071167,55.477409 
	C881.222351,44.589653 892.501343,38.116547 905.166382,34.084904 
	C919.849365,29.410927 934.658386,28.972839 950.029907,31.701372 
	C964.888184,34.338799 978.045410,39.720375 988.524170,50.261761 
	C1000.515503,62.324677 1006.418762,77.590782 1010.240906,94.139526 
	C1013.725220,109.225426 1012.877502,124.286079 1012.940735,139.390518 
	C1013.113159,180.549011 1013.000000,221.708679 1013.000000,262.867889 
	C1013.000000,263.534454 1012.987366,264.201263 1013.002258,264.867493 
	C1013.057434,267.342560 1013.956177,271.500763 1013.020081,271.964874 
	C1010.580627,273.174225 1007.338318,272.764130 1003.926025,273.000000 
z"/>
<path fill="#FFFFFF" opacity="1.000000" stroke="none" 
	d="
M1232.990479,36.000000 
	C1237.321533,36.000576 1241.159668,35.886162 1244.986206,36.046711 
	C1247.134521,36.136845 1249.053955,36.639759 1249.040161,39.657703 
	C1248.958130,57.619221 1248.999634,75.581306 1248.999634,94.000000 
	C1246.892944,94.000000 1245.112183,94.000000 1243.331543,94.000000 
	C1207.999146,94.000000 1172.666626,94.022369 1137.334229,93.981834 
	C1129.931763,93.973335 1124.125366,97.753174 1124.917603,105.813850 
	C1125.510376,111.843727 1130.366089,115.979973 1138.036865,115.991211 
	C1156.536377,116.018326 1175.065430,115.343674 1193.527588,116.173531 
	C1214.506958,117.116516 1233.619385,123.852867 1248.187134,139.829636 
	C1258.386597,151.015732 1263.589722,164.393158 1266.356323,179.522751 
	C1269.902954,198.919495 1265.692139,216.456268 1257.935181,233.581497 
	C1250.451050,250.105026 1236.973267,260.563568 1220.335449,266.826813 
	C1208.249756,271.376434 1195.637085,273.197113 1182.583740,273.108856 
	C1139.753418,272.819122 1096.920044,273.000000 1054.087769,273.000000 
	C1052.267944,273.000000 1050.447998,273.000000 1048.000000,273.000000 
	C1048.000000,269.432312 1048.000000,266.003998 1048.000000,262.575653 
	C1048.000000,248.576004 1048.159180,234.573486 1047.905396,220.578430 
	C1047.826782,216.242416 1048.994507,214.880066 1053.475586,214.901321 
	C1090.307129,215.076080 1127.140259,215.093567 1163.972046,214.948929 
	C1176.752563,214.898743 1178.306641,205.899399 1174.432861,198.389771 
	C1173.258911,196.113831 1169.071289,194.332092 1166.175415,194.195114 
	C1155.699097,193.699554 1145.177124,194.258606 1134.687622,193.931412 
	C1122.848633,193.562149 1110.761108,193.998978 1099.253662,191.711517 
	C1077.696777,187.426437 1059.088745,177.732330 1048.395508,156.917572 
	C1040.031494,140.636810 1038.690796,123.500114 1040.895386,105.633621 
	C1042.729492,90.769463 1047.498413,77.370132 1056.809692,65.468193 
	C1066.489990,53.094662 1079.212280,45.726982 1093.842285,40.978592 
	C1108.896851,36.092461 1124.385498,35.847160 1139.995239,35.943737 
	C1170.826538,36.134491 1201.660034,36.000000 1232.990479,36.000000 
z"/>
<path fill="#FFFFFF" opacity="1.000000" stroke="none" 
	d="
M1614.000000,273.000000 
	C1606.668823,273.000000 1599.828125,272.782562 1593.010132,273.082489 
	C1588.995483,273.259125 1587.886719,271.905518 1587.917480,267.956635 
	C1588.089478,245.964890 1588.000000,223.971100 1588.000000,201.978012 
	C1588.000000,148.994675 1588.053345,96.011200 1587.921875,43.028179 
	C1587.907959,37.393398 1589.188110,35.869858 1595.071899,35.917171 
	C1619.562622,36.114098 1644.056885,36.113152 1668.547363,35.897774 
	C1673.062134,35.858070 1674.167603,37.297134 1674.092773,41.598663 
	C1673.846558,55.756592 1674.000000,69.921478 1674.000000,84.083687 
	C1674.000000,85.661766 1674.000000,87.239845 1674.000000,88.817924 
	C1674.364502,88.930367 1674.729004,89.042816 1675.093506,89.155258 
	C1675.989990,87.626945 1677.197388,86.199989 1677.734009,84.554337 
	C1682.177368,70.926468 1689.171021,58.906727 1699.562988,48.923092 
	C1710.186157,38.717205 1723.033447,33.181137 1737.401001,31.039846 
	C1751.979248,28.867182 1752.000000,29.006672 1752.000000,43.669121 
	C1752.000000,73.326462 1751.966919,102.983887 1752.042725,132.641037 
	C1752.052002,136.252975 1752.105713,138.106720 1747.114868,137.196091 
	C1735.756714,135.123703 1724.152832,133.751740 1712.752808,137.050735 
	C1698.467896,141.184540 1689.751099,150.877075 1684.869507,164.834259 
	C1681.674927,173.967865 1682.018433,183.188080 1682.008911,192.494736 
	C1681.983154,217.653458 1681.919678,242.812744 1682.082886,267.970428 
	C1682.108643,271.937744 1680.959839,273.118744 1676.979126,273.084259 
	C1656.154053,272.903839 1635.326660,273.000000 1614.000000,273.000000 
z"/>
<path fill="#DB6814" opacity="1.000000" stroke="none" 
	d="
M134.202881,23.048332 
	C162.658981,16.746067 190.353592,17.226774 217.855209,26.152193 
	C181.496750,62.513340 145.797211,98.215538 110.293449,133.721924 
	C110.293449,100.217056 110.293449,66.023819 110.293449,30.741608 
	C117.821808,28.287510 125.801384,25.686325 134.202881,23.048332 
z"/>
<path fill="#DB6814" opacity="1.000000" stroke="none" 
	d="
M87.248192,43.240677 
	C91.401978,40.668377 95.285614,38.348728 99.651886,35.740807 
	C99.651886,86.401657 99.651886,136.540451 99.651886,187.601120 
	C97.911247,186.492096 96.454353,185.887695 95.421318,184.858017 
	C73.246666,162.756073 51.093071,140.632645 29.066711,118.383385 
	C28.043745,117.350075 27.459711,114.796974 27.986534,113.476410 
	C36.802673,91.377296 50.945889,72.989410 68.481339,57.199398 
	C74.158012,52.087769 80.785484,48.032055 87.248192,43.240677 
z"/>
<path fill="#DB6814" opacity="1.000000" stroke="none" 
	d="
M71.250244,174.749817 
	C91.237785,194.715714 110.975311,214.431641 131.566223,235.000015 
	C128.822754,235.000015 127.241417,235.000031 125.660072,235.000031 
	C94.698746,235.000031 63.737164,234.941132 32.776405,235.073715 
	C28.858875,235.090500 27.199093,233.892075 25.794931,230.033966 
	C19.640350,213.123459 16.117250,195.904724 15.829484,177.805328 
	C15.565144,161.179443 17.389656,145.010071 22.046711,129.108505 
	C22.221792,128.510696 22.657854,127.989319 23.321524,126.813721 
	C39.368587,142.863266 55.184410,158.681534 71.250244,174.749817 
z"/>
<path fill="#DB6814" opacity="1.000000" stroke="none" 
	d="
M205.250092,53.250153 
	C212.326843,46.170540 219.209991,39.395790 225.942749,32.474751 
	C227.741287,30.625910 229.077255,30.027294 231.754425,31.184038 
	C246.745224,37.661243 260.156281,46.429688 272.644653,56.961449 
	C287.578064,69.555130 298.804993,84.884979 308.227722,101.747726 
	C308.367432,101.997696 308.299988,102.363403 308.336945,102.757126 
	C258.308472,102.757126 208.304474,102.757126 158.300491,102.757126 
	C157.956161,102.363579 157.611816,101.970024 157.267487,101.576477 
	C164.855759,93.268906 173.075302,85.531296 180.992950,77.526222 
	C188.954300,69.476952 196.994461,61.505634 205.250092,53.250153 
z"/>
<path fill="#DB6814" opacity="1.000000" stroke="none" 
	d="
M163.042770,268.115143 
	C146.974838,284.302307 130.928970,300.511658 114.771889,316.609344 
	C113.988380,317.389984 111.984001,317.780487 110.959122,317.357330 
	C97.288239,311.712708 84.702782,304.236145 73.267982,294.802307 
	C60.841259,284.550110 50.031448,272.839478 41.051033,259.481140 
	C38.087692,255.073151 35.572235,250.364059 32.532791,245.256271 
	C34.406807,245.138611 35.508774,245.009140 36.610764,245.008911 
	C83.760986,244.999039 130.911209,244.999619 178.061432,245.009003 
	C178.888947,245.009171 179.716415,245.131866 180.630127,245.886703 
	C180.298660,247.952560 179.880997,249.329086 179.463318,250.705612 
	C178.635544,251.757263 177.807785,252.808929 176.322083,253.991379 
	C175.265686,254.720337 174.867249,255.318527 174.468811,255.916718 
	C174.468811,255.916718 174.103500,255.683044 174.104797,255.957962 
	C174.065796,256.540466 174.025513,256.848083 173.985229,257.155670 
	C171.700699,259.431854 169.416183,261.708008 166.443924,264.041748 
	C162.462784,263.823792 163.091934,266.198608 163.042770,268.115143 
z"/>
<path fill="#DB6814" opacity="1.000000" stroke="none" 
	d="
M213.350891,115.315704 
	C214.696198,114.544174 216.038773,113.104607 217.387207,113.099106 
	C248.493362,112.972008 279.600311,113.040779 310.706573,112.932671 
	C313.506409,112.922943 314.201965,114.259918 315.054932,116.465225 
	C320.378601,130.228821 323.545105,144.385406 325.201233,159.105469 
	C327.181702,176.708328 325.333527,193.865128 321.780853,210.958618 
	C321.279266,213.372040 318.590729,215.330963 316.407837,216.860306 
	C314.682159,215.929276 313.463104,215.638184 312.244049,215.347107 
	C311.548401,214.775833 310.852753,214.204544 309.957001,213.129456 
	C309.464233,212.429153 309.171600,212.232651 308.878937,212.036163 
	C307.164398,210.194855 305.449829,208.353531 303.720459,205.885468 
	C303.127350,205.215515 302.549072,205.172333 301.970795,205.129150 
	C297.717072,200.982986 293.463348,196.836838 289.287628,192.256180 
	C289.577118,191.547775 289.788544,191.273880 289.911438,190.832458 
	C289.548615,190.776611 289.274292,190.888306 288.721466,191.008392 
	C288.257385,191.025528 288.071838,191.034256 287.886261,191.042999 
	C287.549164,191.012863 287.288696,190.855698 286.930878,190.098572 
	C286.464264,189.429153 286.171600,189.232666 285.878967,189.036179 
	C284.983856,188.250839 284.088776,187.465500 282.975281,186.152908 
	C282.464264,185.429169 282.171600,185.232666 281.878967,185.036179 
	C281.520966,184.997162 281.248993,184.823456 281.217529,184.140839 
	C281.247955,183.177765 281.123962,182.588882 280.712524,181.673584 
	C279.859100,181.285431 279.293182,181.223679 278.727234,181.161926 
	C275.737030,178.289932 272.746796,175.417923 269.725647,171.834503 
	C269.081482,167.879883 266.841980,166.951431 263.886322,167.042297 
	C256.667084,159.934082 249.447845,152.825851 242.101898,145.073959 
	C241.301025,143.989777 240.626846,143.549255 239.952682,143.108734 
	C239.420181,142.588303 238.887680,142.067856 238.515137,140.810028 
	C237.795944,139.449463 236.916794,138.826294 236.037628,138.203125 
	C235.470291,137.406830 234.902954,136.610519 233.979355,135.471481 
	C233.259918,135.131943 232.896744,135.135117 232.533585,135.138306 
	C230.774048,133.680344 228.912979,132.327332 227.275482,130.743225 
	C223.528397,127.118240 219.890549,123.380325 216.286987,119.254982 
	C216.577118,118.547798 216.788559,118.273903 216.853210,117.670898 
	C215.587921,116.666428 214.469406,115.991066 213.350891,115.315704 
z"/>
<path fill="#DB6814" opacity="1.000000" stroke="none" 
	d="
M243.740692,162.236954 
	C245.617493,163.454300 247.775589,164.388580 249.328552,165.931793 
	C270.328064,186.799210 291.173157,207.822662 312.271820,228.588730 
	C314.807007,231.083969 314.894592,233.145203 313.616211,235.772797 
	C306.953247,249.467834 299.334473,262.498657 289.429657,274.236023 
	C278.828033,286.799133 266.542786,297.213196 252.167358,305.759460 
	C249.255020,305.691467 246.935043,305.864136 244.000000,306.082581 
	C244.000000,304.431000 244.000000,302.496521 244.000000,300.562042 
	C244.000000,258.443634 244.006943,216.325211 243.988678,174.206802 
	C243.986954,170.216827 243.827133,166.226898 243.740692,162.236954 
z"/>
<path fill="#DB6814" opacity="1.000000" stroke="none" 
	d="
M225.958649,219.885925 
	C225.991287,219.543442 226.152786,219.279938 227.026093,219.215805 
	C228.072723,221.350616 228.934738,223.363876 228.940323,225.379517 
	C229.025772,256.197388 228.999405,287.015533 228.999100,317.833618 
	C218.936218,320.886658 209.003052,324.518372 198.770020,326.812256 
	C190.366592,328.695984 181.627991,329.344116 172.997299,329.860809 
	C167.457855,330.192444 161.790436,329.664825 156.276642,328.861603 
	C146.796738,327.480530 137.390396,325.592102 127.962006,323.868408 
	C127.608963,323.803833 127.348328,323.233887 127.143433,322.165894 
	C127.765854,320.005402 128.289459,318.578461 128.813080,317.151489 
	C130.292160,315.188263 131.771255,313.225037 133.812668,311.009552 
	C134.571396,310.464905 134.767792,310.172516 134.964172,309.880127 
	C135.771576,308.965851 136.578979,308.051605 137.862000,307.283203 
	C139.162079,306.668610 139.986511,305.908203 140.810959,305.147766 
	C144.263000,301.748962 147.715042,298.350128 151.521332,294.370422 
	C151.903397,293.488312 151.931198,293.187103 151.959015,292.885895 
	C155.200104,289.990967 158.441208,287.096039 162.340759,284.033142 
	C166.836502,280.899567 171.082855,278.267639 171.957031,272.884705 
	C186.398453,258.332642 200.839874,243.780594 215.956085,229.101776 
	C219.740143,225.945328 222.849396,222.915619 225.958649,219.885925 
z"/>
<path fill="#DB6814" opacity="1.000000" stroke="none" 
	d="
M243.404282,162.151291 
	C243.827133,166.226898 243.986954,170.216827 243.988678,174.206802 
	C244.006943,216.325211 244.000000,258.443634 244.000000,300.562042 
	C244.000000,302.496521 244.000000,304.431000 244.000000,306.082581 
	C246.935043,305.864136 249.255020,305.691467 251.812134,305.812347 
	C248.926208,307.989410 245.803146,309.872925 242.239685,311.620178 
	C241.637985,311.265808 241.430130,311.109619 241.175781,311.015289 
	C241.121628,284.587982 241.046188,258.160706 241.019867,231.733353 
	C240.997681,209.458649 241.032562,187.183884 241.311066,164.303040 
	C241.817352,163.453247 241.967026,163.164124 242.028946,162.829544 
	C242.375259,162.574905 242.721573,162.320267 243.404282,162.151291 
z"/>
<path fill="#DB6814" opacity="1.000000" stroke="none" 
	d="
M229.431274,317.899017 
	C228.999405,287.015533 229.025772,256.197388 228.940323,225.379517 
	C228.934738,223.363876 228.072723,221.350616 227.253189,219.142487 
	C227.942856,218.210510 228.988434,217.472275 230.842987,216.162872 
	C231.293152,218.377853 231.951065,220.115845 231.954590,221.855164 
	C232.017059,252.592682 232.025925,283.330444 231.909378,314.067657 
	C231.904434,315.369171 230.575562,316.665619 229.431274,317.899017 
z"/>
<path fill="#DB6814" opacity="1.000000" stroke="none" 
	d="
M171.651215,273.027527 
	C171.082855,278.267639 166.836502,280.899567 162.577637,283.864197 
	C165.219177,280.298889 168.282288,276.734650 171.651215,273.027527 
z"/>
<path fill="#DA6814" opacity="1.000000" stroke="none" 
	d="
M225.612305,219.941498 
	C222.849396,222.915619 219.740143,225.945328 216.257812,228.965973 
	C219.011810,225.970306 222.138870,222.983704 225.612305,219.941498 
z"/>
<path fill="#DB6814" opacity="1.000000" stroke="none" 
	d="
M264.035248,167.355713 
	C266.841980,166.951431 269.081482,167.879883 269.575165,171.539047 
	C267.698486,170.526367 265.941315,169.097748 264.035248,167.355713 
z"/>
<path fill="#DB6814" opacity="1.000000" stroke="none" 
	d="
M128.433319,317.062469 
	C128.289459,318.578461 127.765854,320.005402 127.096077,321.768951 
	C124.633171,320.576782 124.768173,319.949005 128.433319,317.062469 
z"/>
<path fill="#DB6814" opacity="1.000000" stroke="none" 
	d="
M163.349762,267.971100 
	C163.091934,266.198608 162.462784,263.823792 166.192795,264.217865 
	C165.638535,265.499939 164.647644,266.663513 163.349762,267.971100 
z"/>
<path fill="#DB6814" opacity="1.000000" stroke="none" 
	d="
M179.736206,250.549957 
	C179.880997,249.329086 180.298660,247.952560 180.883743,246.235733 
	C184.968521,248.382874 180.463898,248.919571 179.736206,250.549957 
z"/>
<path fill="#DB6814" opacity="1.000000" stroke="none" 
	d="
M213.438873,115.626678 
	C214.469406,115.991066 215.587921,116.666428 216.500763,117.673370 
	C215.825348,118.017487 215.355591,118.030022 214.885818,118.042557 
	C214.432831,117.340919 213.979843,116.639282 213.438873,115.626678 
z"/>
<path fill="#DB6814" opacity="1.000000" stroke="none" 
	d="
M312.410797,215.654694 
	C313.463104,215.638184 314.682159,215.929276 315.966614,216.745483 
	C314.880493,216.834503 313.729034,216.398407 312.410797,215.654694 
z"/>
<path fill="#DB6814" opacity="1.000000" stroke="none" 
	d="
M140.456726,305.051697 
	C139.986511,305.908203 139.162079,306.668610 138.145264,307.160706 
	C138.669418,306.246796 139.385956,305.601227 140.456726,305.051697 
z"/>
<path fill="#DB6814" opacity="1.000000" stroke="none" 
	d="
M240.060898,143.380707 
	C240.626846,143.549255 241.301025,143.989777 241.966476,144.772034 
	C241.361542,144.626724 240.765335,144.139709 240.060898,143.380707 
z"/>
<path fill="#DB6814" opacity="1.000000" stroke="none" 
	d="
M235.935425,138.486572 
	C236.916794,138.826294 237.795944,139.449463 238.559830,140.519760 
	C237.574112,140.234589 236.703674,139.502289 235.935425,138.486572 
z"/>
<path fill="#DB6814" opacity="1.000000" stroke="none" 
	d="
M281.000000,182.000000 
	C281.123962,182.588882 281.247955,183.177765 281.131348,183.906860 
	C280.368988,183.627823 279.847198,183.208542 279.675598,182.438904 
	C280.350555,182.059021 280.675293,182.029510 281.000000,182.000000 
z"/>
<path fill="#DB6814" opacity="1.000000" stroke="none" 
	d="
M280.712524,181.673584 
	C280.675293,182.029510 280.350555,182.059021 279.536102,182.128845 
	C278.737122,182.010025 278.599030,181.752884 278.679688,181.279831 
	C279.293182,181.223679 279.859100,181.285431 280.712524,181.673584 
z"/>
<path fill="#DB6814" opacity="1.000000" stroke="none" 
	d="
M174.840149,255.906631 
	C174.867249,255.318527 175.265686,254.720337 176.091492,254.168121 
	C176.083069,254.774902 175.647278,255.335724 174.840149,255.906631 
z"/>
<path fill="#DB6814" opacity="1.000000" stroke="none" 
	d="
M302.135010,205.396332 
	C302.549072,205.172333 303.127350,205.215515 303.582703,205.592255 
	C303.072906,205.838348 302.686066,205.750931 302.135010,205.396332 
z"/>
<path fill="#DB6814" opacity="1.000000" stroke="none" 
	d="
M214.974731,118.278839 
	C215.355591,118.030022 215.825348,118.017487 216.647552,118.002472 
	C216.788559,118.273903 216.577118,118.547798 216.127396,118.933647 
	C215.613968,118.868774 215.338791,118.691940 214.974731,118.278839 
z"/>
<path fill="#DB6814" opacity="1.000000" stroke="none" 
	d="
M287.975037,191.279221 
	C288.071838,191.034256 288.257385,191.025528 288.971466,191.008392 
	C289.500000,191.000000 290.000000,191.000000 290.000000,191.000000 
	C289.788544,191.273880 289.577118,191.547775 289.127411,191.933655 
	C288.614044,191.868896 288.338959,191.692169 287.975037,191.279221 
z"/>
<path fill="#DB6814" opacity="1.000000" stroke="none" 
	d="
M232.678452,135.558655 
	C232.896744,135.135117 233.259918,135.131943 234.160797,135.239349 
	C234.073441,135.559631 233.448380,135.769318 232.678452,135.558655 
z"/>
<path fill="#D6640F" opacity="1.000000" stroke="none" 
	d="
M241.780518,162.938049 
	C241.967026,163.164124 241.817352,163.453247 241.377853,163.837280 
	C241.294525,163.667267 241.413300,163.356918 241.780518,162.938049 
z"/>
<path fill="#DB6814" opacity="1.000000" stroke="none" 
	d="
M308.980103,212.286987 
	C309.171600,212.232651 309.464233,212.429153 309.861206,212.874298 
	C309.670776,212.927887 309.376007,212.732864 308.980103,212.286987 
z"/>
<path fill="#DB6814" opacity="1.000000" stroke="none" 
	d="
M174.283783,257.003723 
	C174.025513,256.848083 174.065796,256.540466 174.230347,255.781189 
	C174.430527,255.836929 174.506439,256.344360 174.283783,257.003723 
z"/>
<path fill="#DB6813" opacity="1.000000" stroke="none" 
	d="
M151.667145,293.034363 
	C151.931198,293.187103 151.903397,293.488312 151.762939,294.232300 
	C151.558624,294.177673 151.466965,293.680267 151.667145,293.034363 
z"/>
<path fill="#DB6814" opacity="1.000000" stroke="none" 
	d="
M134.713348,309.980957 
	C134.767792,310.172516 134.571396,310.464905 134.126617,310.861572 
	C134.072998,310.671204 134.267761,310.376526 134.713348,309.980957 
z"/>
<path fill="#D6640F" opacity="1.000000" stroke="none" 
	d="
M241.152893,311.264771 
	C241.430130,311.109619 241.637985,311.265808 241.890961,311.658478 
	C241.698425,311.726807 241.414230,311.620514 241.152893,311.264771 
z"/>
<path fill="#DB6814" opacity="1.000000" stroke="none" 
	d="
M285.980103,189.287018 
	C286.171600,189.232666 286.464264,189.429153 286.861206,189.874298 
	C286.670776,189.927902 286.376007,189.732880 285.980103,189.287018 
z"/>
<path fill="#DB6814" opacity="1.000000" stroke="none" 
	d="
M281.980103,185.287018 
	C282.171600,185.232666 282.464264,185.429169 282.861206,185.874298 
	C282.670776,185.927917 282.376007,185.732880 281.980103,185.287018 
z"/>
<path fill="#000000" opacity="1.000000" stroke="none" 
	d="
M1454.728271,161.648026 
	C1452.915771,174.194061 1441.811157,186.235352 1428.028320,189.365494 
	C1414.313721,192.480103 1402.448975,190.486969 1391.134644,182.973984 
	C1384.473755,178.551025 1381.230835,171.670746 1378.806274,164.342972 
	C1375.057373,153.012466 1375.699219,141.637863 1379.902222,130.752350 
	C1385.314941,116.733696 1396.634033,109.649467 1411.123047,108.125107 
	C1424.037354,106.766418 1436.204102,109.526970 1445.612915,119.242493 
	C1452.344727,126.193733 1455.734741,134.922699 1455.918823,144.607391 
	C1456.024414,150.160355 1455.314819,155.728806 1454.728271,161.648026 
z"/>
<path fill="#000000" opacity="1.000000" stroke="none" 
	d="
M569.252380,124.251030 
	C576.445374,117.754616 584.139709,114.087822 593.889282,113.784622 
	C604.304199,113.460709 613.779602,114.508057 622.533386,120.799484 
	C631.333557,127.124191 635.075867,135.866562 637.068359,146.007812 
	C638.916504,155.414474 637.840515,164.392776 634.344788,173.157013 
	C628.888489,186.836929 618.450134,194.033188 604.109070,195.995636 
	C590.947021,197.796753 578.997803,194.646255 569.347595,185.593353 
	C562.885559,179.531311 559.226257,171.541214 558.984802,162.332077 
	C558.765930,153.985153 557.544617,145.467392 561.107361,137.576508 
	C563.186584,132.971420 566.331177,128.847336 569.252380,124.251030 
z"/>
<path fill="#000000" opacity="1.000000" stroke="none" 
	d="
M1940.988770,142.411850 
	C1941.332397,147.922668 1942.074585,153.010056 1941.914429,158.068893 
	C1941.589355,168.341324 1938.464478,177.726364 1931.171875,185.280106 
	C1924.993530,191.679642 1917.208130,194.821396 1908.470459,196.030350 
	C1896.366577,197.705048 1885.158569,195.211060 1876.063599,187.214233 
	C1871.452148,183.159500 1867.206665,177.528671 1865.315796,171.781265 
	C1861.393311,159.858704 1861.259766,147.382385 1866.049683,135.417160 
	C1870.596924,124.058731 1882.783447,114.562599 1895.819458,113.980690 
	C1903.681641,113.629723 1911.372314,113.292694 1919.028076,116.361526 
	C1930.063599,120.785080 1936.585571,128.778610 1940.022217,139.781342 
	C1940.258667,140.538483 1940.656250,141.245300 1940.988770,142.411850 
z"/>
<path fill="#DB6814" opacity="1.000000" stroke="none" 
	d="
M289.911438,190.832458 
	C290.000000,191.000000 289.500000,191.000000 289.250000,191.000000 
	C289.274292,190.888306 289.548615,190.776611 289.911438,190.832458 
z"/>
</svg>